<svg xmlns="http://www.w3.org/2000/svg" width="225" height="39" viewBox="0 0 225 39" version="1.1">
  <title>naiture task buttons</title>
  <style type="text/css" id="current-color-scheme">
    .ColorScheme-Highlight { color: #decc60; }
    .ColorScheme-NeutralText { color: #6abfd9; }
  </style>
  <g id="normal-topleft">
    <path d="M 3,11 A 11,11 0 0 1 14,0 L 14,11 Z" fill="#ffffff" fill-opacity="0.0" />
    <path d="M 3.5,11 A 10.5,10.5 0 0 1 14,0.5" fill="none" stroke="#ffffff" stroke-opacity="0.0" stroke-width="1" />
  </g>
  <g id="normal-top">
    <rect x="17" y="0" width="11" height="11" fill="#ffffff" fill-opacity="0.0" />
    <path d="M 17,0.5 L 28,0.5" fill="none" stroke="#ffffff" stroke-opacity="0.0" stroke-width="1" />
  </g>
  <g id="normal-topright">
    <path d="M 42,11 A 11,11 0 0 0 31,0 L 31,11 Z" fill="#ffffff" fill-opacity="0.0" />
    <path d="M 41.5,11 A 10.5,10.5 0 0 0 31,0.5" fill="none" stroke="#ffffff" stroke-opacity="0.0" stroke-width="1" />
  </g>
  <g id="normal-left">
    <rect x="3" y="14" width="11" height="11" fill="#ffffff" fill-opacity="0.0" />
    <path d="M 3.5,14 L 3.5,25" fill="none" stroke="#ffffff" stroke-opacity="0.0" stroke-width="1" />
  </g>
  <g id="normal-center">
    <rect x="17" y="14" width="11" height="11" fill="#ffffff" fill-opacity="0.0" />
  </g>
  <g id="normal-right">
    <rect x="31" y="14" width="11" height="11" fill="#ffffff" fill-opacity="0.0" />
    <path d="M 41.5,14 L 41.5,25" fill="none" stroke="#ffffff" stroke-opacity="0.0" stroke-width="1" />
  </g>
  <g id="normal-bottomleft">
    <path d="M 3,28 A 11,11 0 0 0 14,39 L 14,28 Z" fill="#ffffff" fill-opacity="0.0" />
    <path d="M 3.5,28 A 10.5,10.5 0 0 0 14,38.5" fill="none" stroke="#ffffff" stroke-opacity="0.0" stroke-width="1" />
  </g>
  <g id="normal-bottom">
    <rect x="17" y="28" width="11" height="11" fill="#ffffff" fill-opacity="0.0" />
    <path d="M 17,38.5 L 28,38.5" fill="none" stroke="#ffffff" stroke-opacity="0.0" stroke-width="1" />
  </g>
  <g id="normal-bottomright">
    <path d="M 42,28 A 11,11 0 0 1 31,39 L 31,28 Z" fill="#ffffff" fill-opacity="0.0" />
    <path d="M 41.5,28 A 10.5,10.5 0 0 1 31,38.5" fill="none" stroke="#ffffff" stroke-opacity="0.0" stroke-width="1" />
  </g>
  <rect id="normal-hint-top-margin" x="17" y="0" width="11" height="2" fill="none" />
  <rect id="normal-hint-bottom-margin" x="17" y="37" width="11" height="2" fill="none" />
  <rect id="normal-hint-left-margin" x="3" y="14" width="2" height="11" fill="none" />
  <rect id="normal-hint-right-margin" x="40" y="14" width="2" height="11" fill="none" />
  <g id="minimized-topleft">
    <path d="M 48,11 A 11,11 0 0 1 59,0 L 59,11 Z" fill="#ffffff" fill-opacity="0.04" />
    <path d="M 48.5,11 A 10.5,10.5 0 0 1 59,0.5" fill="none" stroke="#ffffff" stroke-opacity="0.06" stroke-width="1" />
    <path d="M 59,0 A 11,11 0 0 0 51.450,3 L 59,3 Z" fill="currentColor" class="ColorScheme-Highlight" fill-opacity="0.25" />
  </g>
  <g id="minimized-top">
    <rect x="62" y="0" width="11" height="11" fill="#ffffff" fill-opacity="0.04" />
    <path d="M 62,0.5 L 73,0.5" fill="none" stroke="#ffffff" stroke-opacity="0.06" stroke-width="1" />
    <rect x="62" y="0" width="11" height="3" fill="currentColor" class="ColorScheme-Highlight" fill-opacity="0.25" />
  </g>
  <g id="minimized-topright">
    <path d="M 87,11 A 11,11 0 0 0 76,0 L 76,11 Z" fill="#ffffff" fill-opacity="0.04" />
    <path d="M 86.5,11 A 10.5,10.5 0 0 0 76,0.5" fill="none" stroke="#ffffff" stroke-opacity="0.06" stroke-width="1" />
    <path d="M 76,0 A 11,11 0 0 1 83.550,3 L 76,3 Z" fill="currentColor" class="ColorScheme-Highlight" fill-opacity="0.25" />
  </g>
  <g id="minimized-left">
    <rect x="48" y="14" width="11" height="11" fill="#ffffff" fill-opacity="0.04" />
    <path d="M 48.5,14 L 48.5,25" fill="none" stroke="#ffffff" stroke-opacity="0.06" stroke-width="1" />
  </g>
  <g id="minimized-center">
    <rect x="62" y="14" width="11" height="11" fill="#ffffff" fill-opacity="0.04" />
  </g>
  <g id="minimized-right">
    <rect x="76" y="14" width="11" height="11" fill="#ffffff" fill-opacity="0.04" />
    <path d="M 86.5,14 L 86.5,25" fill="none" stroke="#ffffff" stroke-opacity="0.06" stroke-width="1" />
  </g>
  <g id="minimized-bottomleft">
    <path d="M 48,28 A 11,11 0 0 0 59,39 L 59,28 Z" fill="#ffffff" fill-opacity="0.04" />
    <path d="M 48.5,28 A 10.5,10.5 0 0 0 59,38.5" fill="none" stroke="#ffffff" stroke-opacity="0.06" stroke-width="1" />
  </g>
  <g id="minimized-bottom">
    <rect x="62" y="28" width="11" height="11" fill="#ffffff" fill-opacity="0.04" />
    <path d="M 62,38.5 L 73,38.5" fill="none" stroke="#ffffff" stroke-opacity="0.06" stroke-width="1" />
  </g>
  <g id="minimized-bottomright">
    <path d="M 87,28 A 11,11 0 0 1 76,39 L 76,28 Z" fill="#ffffff" fill-opacity="0.04" />
    <path d="M 86.5,28 A 10.5,10.5 0 0 1 76,38.5" fill="none" stroke="#ffffff" stroke-opacity="0.06" stroke-width="1" />
  </g>
  <rect id="minimized-hint-top-margin" x="62" y="0" width="11" height="2" fill="none" />
  <rect id="minimized-hint-bottom-margin" x="62" y="37" width="11" height="2" fill="none" />
  <rect id="minimized-hint-left-margin" x="48" y="14" width="2" height="11" fill="none" />
  <rect id="minimized-hint-right-margin" x="85" y="14" width="2" height="11" fill="none" />
  <g id="hover-topleft">
    <path d="M 93,11 A 11,11 0 0 1 104,0 L 104,11 Z" fill="#ffffff" fill-opacity="0.0" />
    <path d="M 93.5,11 A 10.5,10.5 0 0 1 104,0.5" fill="none" stroke="#ffffff" stroke-opacity="0.0" stroke-width="1" />
    <path d="M 104,0 A 11,11 0 0 0 96.450,3 L 104,3 Z" fill="currentColor" class="ColorScheme-Highlight" fill-opacity="0.5" />
  </g>
  <g id="hover-top">
    <rect x="107" y="0" width="11" height="11" fill="#ffffff" fill-opacity="0.0" />
    <path d="M 107,0.5 L 118,0.5" fill="none" stroke="#ffffff" stroke-opacity="0.0" stroke-width="1" />
    <rect x="107" y="0" width="11" height="3" fill="currentColor" class="ColorScheme-Highlight" fill-opacity="0.5" />
  </g>
  <g id="hover-topright">
    <path d="M 132,11 A 11,11 0 0 0 121,0 L 121,11 Z" fill="#ffffff" fill-opacity="0.0" />
    <path d="M 131.5,11 A 10.5,10.5 0 0 0 121,0.5" fill="none" stroke="#ffffff" stroke-opacity="0.0" stroke-width="1" />
    <path d="M 121,0 A 11,11 0 0 1 128.550,3 L 121,3 Z" fill="currentColor" class="ColorScheme-Highlight" fill-opacity="0.5" />
  </g>
  <g id="hover-left">
    <rect x="93" y="14" width="11" height="11" fill="#ffffff" fill-opacity="0.0" />
    <path d="M 93.5,14 L 93.5,25" fill="none" stroke="#ffffff" stroke-opacity="0.0" stroke-width="1" />
  </g>
  <g id="hover-center">
    <rect x="107" y="14" width="11" height="11" fill="#ffffff" fill-opacity="0.0" />
  </g>
  <g id="hover-right">
    <rect x="121" y="14" width="11" height="11" fill="#ffffff" fill-opacity="0.0" />
    <path d="M 131.5,14 L 131.5,25" fill="none" stroke="#ffffff" stroke-opacity="0.0" stroke-width="1" />
  </g>
  <g id="hover-bottomleft">
    <path d="M 93,28 A 11,11 0 0 0 104,39 L 104,28 Z" fill="#ffffff" fill-opacity="0.0" />
    <path d="M 93.5,28 A 10.5,10.5 0 0 0 104,38.5" fill="none" stroke="#ffffff" stroke-opacity="0.0" stroke-width="1" />
  </g>
  <g id="hover-bottom">
    <rect x="107" y="28" width="11" height="11" fill="#ffffff" fill-opacity="0.0" />
    <path d="M 107,38.5 L 118,38.5" fill="none" stroke="#ffffff" stroke-opacity="0.0" stroke-width="1" />
  </g>
  <g id="hover-bottomright">
    <path d="M 132,28 A 11,11 0 0 1 121,39 L 121,28 Z" fill="#ffffff" fill-opacity="0.0" />
    <path d="M 131.5,28 A 10.5,10.5 0 0 1 121,38.5" fill="none" stroke="#ffffff" stroke-opacity="0.0" stroke-width="1" />
  </g>
  <rect id="hover-hint-top-margin" x="107" y="0" width="11" height="2" fill="none" />
  <rect id="hover-hint-bottom-margin" x="107" y="37" width="11" height="2" fill="none" />
  <rect id="hover-hint-left-margin" x="93" y="14" width="2" height="11" fill="none" />
  <rect id="hover-hint-right-margin" x="130" y="14" width="2" height="11" fill="none" />
  <g id="focus-topleft">
    <path d="M 138,11 A 11,11 0 0 1 149,0 L 149,11 Z" fill="#ffffff" fill-opacity="0.0" />
    <path d="M 138.5,11 A 10.5,10.5 0 0 1 149,0.5" fill="none" stroke="#ffffff" stroke-opacity="0.0" stroke-width="1" />
    <path d="M 149,0 A 11,11 0 0 0 141.450,3 L 149,3 Z" fill="currentColor" class="ColorScheme-Highlight" fill-opacity="1" />
  </g>
  <g id="focus-top">
    <rect x="152" y="0" width="11" height="11" fill="#ffffff" fill-opacity="0.0" />
    <path d="M 152,0.5 L 163,0.5" fill="none" stroke="#ffffff" stroke-opacity="0.0" stroke-width="1" />
    <rect x="152" y="0" width="11" height="3" fill="currentColor" class="ColorScheme-Highlight" fill-opacity="1" />
  </g>
  <g id="focus-topright">
    <path d="M 177,11 A 11,11 0 0 0 166,0 L 166,11 Z" fill="#ffffff" fill-opacity="0.0" />
    <path d="M 176.5,11 A 10.5,10.5 0 0 0 166,0.5" fill="none" stroke="#ffffff" stroke-opacity="0.0" stroke-width="1" />
    <path d="M 166,0 A 11,11 0 0 1 173.550,3 L 166,3 Z" fill="currentColor" class="ColorScheme-Highlight" fill-opacity="1" />
  </g>
  <g id="focus-left">
    <rect x="138" y="14" width="11" height="11" fill="#ffffff" fill-opacity="0.0" />
    <path d="M 138.5,14 L 138.5,25" fill="none" stroke="#ffffff" stroke-opacity="0.0" stroke-width="1" />
  </g>
  <g id="focus-center">
    <rect x="152" y="14" width="11" height="11" fill="#ffffff" fill-opacity="0.0" />
  </g>
  <g id="focus-right">
    <rect x="166" y="14" width="11" height="11" fill="#ffffff" fill-opacity="0.0" />
    <path d="M 176.5,14 L 176.5,25" fill="none" stroke="#ffffff" stroke-opacity="0.0" stroke-width="1" />
  </g>
  <g id="focus-bottomleft">
    <path d="M 138,28 A 11,11 0 0 0 149,39 L 149,28 Z" fill="#ffffff" fill-opacity="0.0" />
    <path d="M 138.5,28 A 10.5,10.5 0 0 0 149,38.5" fill="none" stroke="#ffffff" stroke-opacity="0.0" stroke-width="1" />
  </g>
  <g id="focus-bottom">
    <rect x="152" y="28" width="11" height="11" fill="#ffffff" fill-opacity="0.0" />
    <path d="M 152,38.5 L 163,38.5" fill="none" stroke="#ffffff" stroke-opacity="0.0" stroke-width="1" />
  </g>
  <g id="focus-bottomright">
    <path d="M 177,28 A 11,11 0 0 1 166,39 L 166,28 Z" fill="#ffffff" fill-opacity="0.0" />
    <path d="M 176.5,28 A 10.5,10.5 0 0 1 166,38.5" fill="none" stroke="#ffffff" stroke-opacity="0.0" stroke-width="1" />
  </g>
  <rect id="focus-hint-top-margin" x="152" y="0" width="11" height="2" fill="none" />
  <rect id="focus-hint-bottom-margin" x="152" y="37" width="11" height="2" fill="none" />
  <rect id="focus-hint-left-margin" x="138" y="14" width="2" height="11" fill="none" />
  <rect id="focus-hint-right-margin" x="175" y="14" width="2" height="11" fill="none" />
  <g id="attention-topleft">
    <path d="M 183,11 A 11,11 0 0 1 194,0 L 194,11 Z" fill="#ffffff" fill-opacity="0.0" />
    <path d="M 183.5,11 A 10.5,10.5 0 0 1 194,0.5" fill="none" stroke="#ffffff" stroke-opacity="0.0" stroke-width="1" />
    <path d="M 194,0 A 11,11 0 0 0 186.450,3 L 194,3 Z" fill="currentColor" class="ColorScheme-NeutralText" fill-opacity="1" />
  </g>
  <g id="attention-top">
    <rect x="197" y="0" width="11" height="11" fill="#ffffff" fill-opacity="0.0" />
    <path d="M 197,0.5 L 208,0.5" fill="none" stroke="#ffffff" stroke-opacity="0.0" stroke-width="1" />
    <rect x="197" y="0" width="11" height="3" fill="currentColor" class="ColorScheme-NeutralText" fill-opacity="1" />
  </g>
  <g id="attention-topright">
    <path d="M 222,11 A 11,11 0 0 0 211,0 L 211,11 Z" fill="#ffffff" fill-opacity="0.0" />
    <path d="M 221.5,11 A 10.5,10.5 0 0 0 211,0.5" fill="none" stroke="#ffffff" stroke-opacity="0.0" stroke-width="1" />
    <path d="M 211,0 A 11,11 0 0 1 218.550,3 L 211,3 Z" fill="currentColor" class="ColorScheme-NeutralText" fill-opacity="1" />
  </g>
  <g id="attention-left">
    <rect x="183" y="14" width="11" height="11" fill="#ffffff" fill-opacity="0.0" />
    <path d="M 183.5,14 L 183.5,25" fill="none" stroke="#ffffff" stroke-opacity="0.0" stroke-width="1" />
  </g>
  <g id="attention-center">
    <rect x="197" y="14" width="11" height="11" fill="#ffffff" fill-opacity="0.0" />
  </g>
  <g id="attention-right">
    <rect x="211" y="14" width="11" height="11" fill="#ffffff" fill-opacity="0.0" />
    <path d="M 221.5,14 L 221.5,25" fill="none" stroke="#ffffff" stroke-opacity="0.0" stroke-width="1" />
  </g>
  <g id="attention-bottomleft">
    <path d="M 183,28 A 11,11 0 0 0 194,39 L 194,28 Z" fill="#ffffff" fill-opacity="0.0" />
    <path d="M 183.5,28 A 10.5,10.5 0 0 0 194,38.5" fill="none" stroke="#ffffff" stroke-opacity="0.0" stroke-width="1" />
  </g>
  <g id="attention-bottom">
    <rect x="197" y="28" width="11" height="11" fill="#ffffff" fill-opacity="0.0" />
    <path d="M 197,38.5 L 208,38.5" fill="none" stroke="#ffffff" stroke-opacity="0.0" stroke-width="1" />
  </g>
  <g id="attention-bottomright">
    <path d="M 222,28 A 11,11 0 0 1 211,39 L 211,28 Z" fill="#ffffff" fill-opacity="0.0" />
    <path d="M 221.5,28 A 10.5,10.5 0 0 1 211,38.5" fill="none" stroke="#ffffff" stroke-opacity="0.0" stroke-width="1" />
  </g>
  <rect id="attention-hint-top-margin" x="197" y="0" width="11" height="2" fill="none" />
  <rect id="attention-hint-bottom-margin" x="197" y="37" width="11" height="2" fill="none" />
  <rect id="attention-hint-left-margin" x="183" y="14" width="2" height="11" fill="none" />
  <rect id="attention-hint-right-margin" x="220" y="14" width="2" height="11" fill="none" />
</svg>
